<mxfile host="app.diagrams.net" modified="2023-07-19T14:43:58.023Z" agent="Mozilla/5.0 (Windows NT 10.0; Win64; x64) AppleWebKit/537.36 (KHTML, like Gecko) Chrome/114.0.0.0 Safari/537.36" etag="uqkYF6jLiVKaDnBuT2y6" version="21.6.3" type="github">
  <diagram name="第 1 页" id="9ja5iORuQrSTHiV8dQc6">
    <mxGraphModel dx="954" dy="623" grid="1" gridSize="10" guides="1" tooltips="1" connect="1" arrows="1" fold="1" page="1" pageScale="1" pageWidth="827" pageHeight="1169" math="0" shadow="0">
      <root>
        <mxCell id="0" />
        <mxCell id="1" parent="0" />
        <mxCell id="PKmrDAxRcISS1pxTN49d-1" value="用户空间" style="rounded=0;whiteSpace=wrap;html=1;fillColor=#dae8fc;strokeColor=#6c8ebf;" vertex="1" parent="1">
          <mxGeometry x="160" y="120" width="70" height="20" as="geometry" />
        </mxCell>
        <mxCell id="PKmrDAxRcISS1pxTN49d-2" value="内核空间" style="rounded=0;whiteSpace=wrap;html=1;fillColor=#d5e8d4;strokeColor=#82b366;" vertex="1" parent="1">
          <mxGeometry x="260" y="120" width="70" height="20" as="geometry" />
        </mxCell>
        <mxCell id="PKmrDAxRcISS1pxTN49d-3" value="" style="endArrow=none;dashed=1;html=1;dashPattern=1 3;strokeWidth=2;rounded=0;" edge="1" parent="1">
          <mxGeometry width="50" height="50" relative="1" as="geometry">
            <mxPoint x="240" y="320" as="sourcePoint" />
            <mxPoint x="240" y="80" as="targetPoint" />
          </mxGeometry>
        </mxCell>
        <mxCell id="PKmrDAxRcISS1pxTN49d-4" value="内核缓冲区&lt;br&gt;（Page Cache）" style="rounded=0;whiteSpace=wrap;html=1;fillColor=#ffe6cc;strokeColor=#d79b00;" vertex="1" parent="1">
          <mxGeometry x="256.5" y="170" width="95" height="40" as="geometry" />
        </mxCell>
        <mxCell id="PKmrDAxRcISS1pxTN49d-11" style="edgeStyle=orthogonalEdgeStyle;rounded=0;orthogonalLoop=1;jettySize=auto;html=1;exitX=1;exitY=0.5;exitDx=0;exitDy=0;" edge="1" parent="1" source="PKmrDAxRcISS1pxTN49d-5" target="PKmrDAxRcISS1pxTN49d-9">
          <mxGeometry relative="1" as="geometry" />
        </mxCell>
        <mxCell id="PKmrDAxRcISS1pxTN49d-5" value="Socket缓冲区" style="rounded=0;whiteSpace=wrap;html=1;fillColor=#fff2cc;strokeColor=#d6b656;" vertex="1" parent="1">
          <mxGeometry x="256.5" y="280" width="95" height="40" as="geometry" />
        </mxCell>
        <mxCell id="PKmrDAxRcISS1pxTN49d-6" value="" style="shape=flexArrow;endArrow=classic;startArrow=classic;html=1;rounded=0;entryX=0.421;entryY=1.15;entryDx=0;entryDy=0;entryPerimeter=0;exitX=0.416;exitY=0.063;exitDx=0;exitDy=0;exitPerimeter=0;" edge="1" parent="1" source="PKmrDAxRcISS1pxTN49d-5" target="PKmrDAxRcISS1pxTN49d-4">
          <mxGeometry width="100" height="100" relative="1" as="geometry">
            <mxPoint x="349" y="370" as="sourcePoint" />
            <mxPoint x="449" y="270" as="targetPoint" />
          </mxGeometry>
        </mxCell>
        <mxCell id="PKmrDAxRcISS1pxTN49d-7" value="映射" style="text;strokeColor=none;align=center;fillColor=none;html=1;verticalAlign=middle;whiteSpace=wrap;rounded=0;" vertex="1" parent="1">
          <mxGeometry x="291.5" y="230" width="60" height="30" as="geometry" />
        </mxCell>
        <mxCell id="PKmrDAxRcISS1pxTN49d-10" style="edgeStyle=orthogonalEdgeStyle;rounded=0;orthogonalLoop=1;jettySize=auto;html=1;exitX=0;exitY=0.5;exitDx=0;exitDy=0;entryX=1;entryY=0.5;entryDx=0;entryDy=0;" edge="1" parent="1" source="PKmrDAxRcISS1pxTN49d-8" target="PKmrDAxRcISS1pxTN49d-4">
          <mxGeometry relative="1" as="geometry" />
        </mxCell>
        <mxCell id="PKmrDAxRcISS1pxTN49d-8" value="磁盘" style="shape=hexagon;perimeter=hexagonPerimeter2;whiteSpace=wrap;html=1;fixedSize=1;fillColor=#e1d5e7;strokeColor=#9673a6;" vertex="1" parent="1">
          <mxGeometry x="409" y="165" width="60" height="50" as="geometry" />
        </mxCell>
        <mxCell id="PKmrDAxRcISS1pxTN49d-9" value="网络" style="ellipse;whiteSpace=wrap;html=1;aspect=fixed;fillColor=#f8cecc;strokeColor=#b85450;" vertex="1" parent="1">
          <mxGeometry x="409" y="275" width="50" height="50" as="geometry" />
        </mxCell>
        <mxCell id="PKmrDAxRcISS1pxTN49d-13" value="零拷贝示意图" style="text;strokeColor=none;align=center;fillColor=none;html=1;verticalAlign=middle;whiteSpace=wrap;rounded=0;" vertex="1" parent="1">
          <mxGeometry x="256.5" y="340" width="170" height="30" as="geometry" />
        </mxCell>
      </root>
    </mxGraphModel>
  </diagram>
</mxfile>
